<svg xmlns="http://www.w3.org/2000/svg" viewBox="0 0 118.39 181.22"><defs><style>.cls-1{fill:none;stroke:#6d6e71;stroke-miterlimit:10;stroke-width:5px;}</style></defs><title>oip</title><g id="Layer_2" data-name="Layer 2"><g id="oip"><g id="Layer_2-2" data-name="Layer 2"><g id="Layer_1-2" data-name="Layer 1-2"><path class="cls-1" d="M65.22,103.87a12.07,12.07,0,0,0,12,12.07h26.91a12.06,12.06,0,0,0,11.71-12.06V77.33a12.06,12.06,0,0,0-12.06-12.06H81.18a28,28,0,0,1-28-28h0V14.56A12.07,12.07,0,0,0,41.11,2.5H14.56A12.07,12.07,0,0,0,2.5,14.56V41.11A12.08,12.08,0,0,0,14.56,53.18h3.75a6,6,0,1,1,0,12.06H14.25a12.05,12.05,0,0,0-11.75,12v26.54a12.08,12.08,0,0,0,12.06,12.07h3.75a6,6,0,1,1,0,12.07h-4.1A12.06,12.06,0,0,0,2.5,140.11v26.55a12.07,12.07,0,0,0,12.06,12.06H41.11a12.06,12.06,0,0,0,12.06-11.85.74.74,0,0,0,0-.21V140.11A12.07,12.07,0,0,0,41.1,128.05H37.35a6,6,0,0,1,0-12.07h0A28,28,0,0,1,65.2,143.89h0v22.77a12.06,12.06,0,0,0,12,12.06H103.8a12.05,12.05,0,0,0,12.07-12.05h0V140.11a12.06,12.06,0,0,0-12.06-12.06H81.14a28,28,0,0,1-27.69-24.13,27.28,27.28,0,0,1-.26-3.83V100h0V77.33A12.06,12.06,0,0,0,41.11,65.27H37.35a6,6,0,0,1,0-12.06h1.22A28,28,0,0,1,65,77.29a24.89,24.89,0,0,1,.25,2.86v23.72Z"/></g></g></g></g></svg>